<svg xmlns="http://www.w3.org/2000/svg" width="1042.1999999999998" height="366"><g transform="translate(-35.4,30)"><path class="link" d="M554,0C554,53.5 277,53.5 277,107" style="opacity: 1; fill: none; stroke: rgb(204, 204, 204);"/><path class="link" d="M554,0C554,53.5 554,53.5 554,107" style="opacity: 1; fill: none; stroke: rgb(204, 204, 204);"/><path class="link" d="M554,0C554,53.5 831,53.5 831,107" style="opacity: 1; fill: none; stroke: rgb(204, 204, 204);"/><path class="link" d="M277,107C277,160.5 166.2,160.5 166.2,214" style="opacity: 1; fill: none; stroke: rgb(204, 204, 204);"/><path class="link" d="M277,107C277,160.5 221.6,160.5 221.6,214" style="opacity: 1; fill: none; stroke: rgb(204, 204, 204);"/><path class="link" d="M277,107C277,160.5 277,160.5 277,214" style="opacity: 1; fill: none; stroke: rgb(204, 204, 204);"/><path class="link" d="M277,107C277,160.5 332.4,160.5 332.4,214" style="opacity: 1; fill: none; stroke: rgb(204, 204, 204);"/><path class="link" d="M277,107C277,160.5 387.8,160.5 387.8,214" style="opacity: 1; fill: none; stroke: rgb(204, 204, 204);"/><path class="link" d="M332.4,214C332.4,267.5 332.4,267.5 332.4,321" style="opacity: 1; fill: none; stroke: rgb(204, 204, 204);"/><path class="link" d="M831,107C831,160.5 609.4,160.5 609.4,214" style="opacity: 1; fill: none; stroke: rgb(204, 204, 204);"/><path class="link" d="M831,107C831,160.5 664.8,160.5 664.8,214" style="opacity: 1; fill: none; stroke: rgb(204, 204, 204);"/><path class="link" d="M831,107C831,160.5 720.1999999999999,160.5 720.1999999999999,214" style="opacity: 1; fill: none; stroke: rgb(204, 204, 204);"/><path class="link" d="M831,107C831,160.5 775.6,160.5 775.6,214" style="opacity: 1; fill: none; stroke: rgb(204, 204, 204);"/><path class="link" d="M831,107C831,160.5 1052.6,160.5 1052.6,214" style="opacity: 1; fill: none; stroke: rgb(204, 204, 204);"/><path class="link" d="M664.8,214C664.8,267.5 664.8,267.5 664.8,321" style="opacity: 1; fill: none; stroke: rgb(204, 204, 204);"/><path class="link" d="M775.6,214C775.6,267.5 775.6,267.5 775.6,321" style="opacity: 1; fill: none; stroke: rgb(204, 204, 204);"/><path class="link" d="M277,107C277,160.5 55.400000000000006,160.5 55.400000000000006,214" style="opacity: 1; fill: none; stroke: rgb(204, 204, 204);"/><path class="link" d="M277,107C277,160.5 110.8,160.5 110.8,214" style="opacity: 1; fill: none; stroke: rgb(204, 204, 204);"/><path class="link" d="M277,107C277,160.5 443.2,160.5 443.2,214" style="opacity: 1; fill: none; stroke: rgb(204, 204, 204);"/><path class="link" d="M277,107C277,160.5 498.59999999999997,160.5 498.59999999999997,214" style="opacity: 1; fill: none; stroke: rgb(204, 204, 204);"/><path class="link" d="M443.2,214C443.2,267.5 443.2,267.5 443.2,321" style="opacity: 1; fill: none; stroke: rgb(204, 204, 204);"/><path class="link" d="M831,107C831,160.5 831,160.5 831,214" style="opacity: 1; fill: none; stroke: rgb(204, 204, 204);"/><path class="link" d="M831,107C831,160.5 886.4,160.5 886.4,214" style="opacity: 1; fill: none; stroke: rgb(204, 204, 204);"/><path class="link" d="M831,107C831,160.5 941.8,160.5 941.8,214" style="opacity: 1; fill: none; stroke: rgb(204, 204, 204);"/><path class="link" d="M831,107C831,160.5 997.1999999999999,160.5 997.1999999999999,214" style="opacity: 1; fill: none; stroke: rgb(204, 204, 204);"/><path class="link" d="M886.4,214C886.4,267.5 886.4,267.5 886.4,321" style="opacity: 1; fill: none; stroke: rgb(204, 204, 204);"/><path class="link" d="M997.1999999999999,214C997.1999999999999,267.5 997.1999999999999,267.5 997.1999999999999,321" style="opacity: 1; fill: none; stroke: rgb(204, 204, 204);"/><g class="node element" style="opacity: 1; font-size: 11px; font-weight: bold;" transform="translate(554,0)"><circle r="10" style="stroke-width: 1.5px; fill: steelblue; stroke: rgb(53, 94, 149);"/><text text-anchor="middle" dy="-15">html</text></g><g class="node element" style="opacity: 1; font-size: 11px; font-weight: bold;" transform="translate(277,107)"><circle r="10" style="stroke-width: 1.5px; fill: steelblue; stroke: rgb(53, 94, 149);"/><text text-anchor="middle" dy="-15">head</text></g><g class="node text indent" style="opacity: 1; font-size: 11px; font-weight: bold;" transform="translate(166.1999969482422,214)"><circle r="10" style="stroke-width: 1.5px; fill: rgb(255, 204, 0); stroke: orange;"/><text text-anchor="middle" dy="-15">#text</text></g><g class="node element" style="opacity: 1; font-size: 11px; font-weight: bold;" transform="translate(221.60000610351562,214)"><circle r="10" style="stroke-width: 1.5px; fill: steelblue; stroke: rgb(53, 94, 149);"/><text text-anchor="middle" dy="-15">meta</text></g><g class="node text indent" style="opacity: 1; font-size: 11px; font-weight: bold;" transform="translate(277,214)"><circle r="10" style="stroke-width: 1.5px; fill: rgb(255, 204, 0); stroke: orange;"/><text text-anchor="middle" dy="-15">#text</text></g><g class="node element" style="opacity: 1; font-size: 11px; font-weight: bold;" transform="translate(332.3999938964844,214)"><circle r="10" style="stroke-width: 1.5px; fill: steelblue; stroke: rgb(53, 94, 149);"/><text text-anchor="middle" dy="-15">title</text></g><g class="node text" style="opacity: 1; font-size: 11px; font-weight: bold;" transform="translate(332.3999938964844,321)"><circle r="10" style="stroke-width: 1.5px; fill: rgb(80, 180, 86); stroke: rgb(13, 149, 44);"/><text text-anchor="middle" dy="-15">#text</text></g><g class="node text indent" style="opacity: 1; font-size: 11px; font-weight: bold;" transform="translate(387.79998779296875,214)"><circle r="10" style="stroke-width: 1.5px; fill: rgb(255, 204, 0); stroke: orange;"/><text text-anchor="middle" dy="-15">#text</text></g><g class="node text indent" style="opacity: 1; font-size: 11px; font-weight: bold;" transform="translate(554,107)"><circle r="10" style="stroke-width: 1.5px; fill: rgb(255, 204, 0); stroke: orange;"/><text text-anchor="middle" dy="-15">#text</text></g><g class="node element" style="opacity: 1; font-size: 11px; font-weight: bold;" transform="translate(831,107)"><circle r="10" style="stroke-width: 1.5px; fill: steelblue; stroke: rgb(53, 94, 149);"/><text text-anchor="middle" dy="-15">body</text></g><g class="node text indent" style="opacity: 1; font-size: 11px; font-weight: bold;" transform="translate(609.4000244140625,214)"><circle r="10" style="stroke-width: 1.5px; fill: rgb(255, 204, 0); stroke: orange;"/><text text-anchor="middle" dy="-15">#text</text></g><g class="node element" style="opacity: 1; font-size: 11px; font-weight: bold;" transform="translate(664.7999877929688,214)"><circle r="10" style="stroke-width: 1.5px; fill: steelblue; stroke: rgb(53, 94, 149);"/><text text-anchor="middle" dy="-15">h2#First</text></g><g class="node text" style="opacity: 1; font-size: 11px; font-weight: bold;" transform="translate(664.7999877929688,321)"><circle r="10" style="stroke-width: 1.5px; fill: rgb(80, 180, 86); stroke: rgb(13, 149, 44);"/><text text-anchor="middle" dy="-15">#text</text></g><g class="node text indent" style="opacity: 1; font-size: 11px; font-weight: bold;" transform="translate(720.2000122070312,214)"><circle r="10" style="stroke-width: 1.5px; fill: rgb(255, 204, 0); stroke: orange;"/><text text-anchor="middle" dy="-15">#text</text></g><g class="node element" style="opacity: 1; font-size: 11px; font-weight: bold;" transform="translate(775.5999755859375,214)"><circle r="10" style="stroke-width: 1.5px; fill: steelblue; stroke: rgb(53, 94, 149);"/><text text-anchor="middle" dy="-15">h2#Second</text></g><g class="node text indent" style="opacity: 1; font-size: 11px; font-weight: bold;" transform="translate(775.5999755859375,321)"><circle r="10" style="stroke-width: 1.5px; fill: rgb(255, 204, 0); stroke: orange;"/><text text-anchor="middle" dy="-15">#text</text></g><g class="node text indent" style="opacity: 1; font-size: 11px; font-weight: bold;" transform="translate(1052.5999755859375,214)"><circle r="10" style="stroke-width: 1.5px; fill: rgb(255, 204, 0); stroke: orange;"/><text text-anchor="middle" dy="-15">#text</text></g><g class="node text indent" style="opacity: 1; font-size: 11px; font-weight: bold;" transform="translate(55.400001525878906,214)"><circle r="10" style="stroke-width: 1.5px; fill: rgb(255, 204, 0); stroke: orange;"/><text text-anchor="middle" dy="-15">#text</text></g><g class="node element" style="opacity: 1; font-size: 11px; font-weight: bold;" transform="translate(110.80000305175781,214)"><circle r="10" style="stroke-width: 1.5px; fill: steelblue; stroke: rgb(53, 94, 149);"/><text text-anchor="middle" dy="-15">meta</text></g><g class="node element" style="opacity: 1; font-size: 11px; font-weight: bold;" transform="translate(443.20001220703125,214)"><circle r="10" style="stroke-width: 1.5px; fill: steelblue; stroke: rgb(53, 94, 149);"/><text text-anchor="middle" dy="-15">style</text></g><g class="node text" style="opacity: 1; font-size: 11px; font-weight: bold;" transform="translate(443.20001220703125,321)"><circle r="10" style="stroke-width: 1.5px; fill: rgb(80, 180, 86); stroke: rgb(13, 149, 44);"/><text text-anchor="middle" dy="-15">#text</text></g><g class="node text indent" style="opacity: 1; font-size: 11px; font-weight: bold;" transform="translate(498.6000061035156,214)"><circle r="10" style="stroke-width: 1.5px; fill: rgb(255, 204, 0); stroke: orange;"/><text text-anchor="middle" dy="-15">#text</text></g><g class="node text indent" style="opacity: 1; font-size: 11px; font-weight: bold;" transform="translate(831,214)"><circle r="10" style="stroke-width: 1.5px; fill: rgb(255, 204, 0); stroke: orange;"/><text text-anchor="middle" dy="-15">#text</text></g><g class="node element" style="opacity: 1; font-size: 11px; font-weight: bold;" transform="translate(886.4000244140625,214)"><circle r="10" style="stroke-width: 1.5px; fill: steelblue; stroke: rgb(53, 94, 149);"/><text text-anchor="middle" dy="-15">h2#Third</text></g><g class="node text" style="opacity: 1; font-size: 11px; font-weight: bold;" transform="translate(886.4000244140625,321)"><circle r="10" style="stroke-width: 1.5px; fill: rgb(80, 180, 86); stroke: rgb(13, 149, 44);"/><text text-anchor="middle" dy="-15">#text</text></g><g class="node text indent" style="opacity: 1; font-size: 11px; font-weight: bold;" transform="translate(941.7999877929688,214)"><circle r="10" style="stroke-width: 1.5px; fill: rgb(255, 204, 0); stroke: orange;"/><text text-anchor="middle" dy="-15">#text</text></g><g class="node element" style="opacity: 1; font-size: 11px; font-weight: bold;" transform="translate(997.2000122070312,214)"><circle r="10" style="stroke-width: 1.5px; fill: steelblue; stroke: rgb(53, 94, 149);"/><text text-anchor="middle" dy="-15">h2#Fourth</text></g><g class="node text" style="opacity: 1; font-size: 11px; font-weight: bold;" transform="translate(997.2000122070312,321)"><circle r="10" style="stroke-width: 1.5px; fill: rgb(80, 180, 86); stroke: rgb(13, 149, 44);"/><text text-anchor="middle" dy="-15">#text</text></g></g></svg>